HIERARCHY
ROOT Hips
{
 OFFSET 0.000000 0.000000 0.000000
 CHANNELS 6 Xposition Yposition Zposition Yrotation Xrotation Zrotation
 JOINT Chest
 {
  OFFSET 0.000000 9.585900 0.002600
  CHANNELS 3 Yrotation Xrotation Zrotation
  JOINT Chest2
  {
   OFFSET 0.000000 9.601200 -0.005300
   CHANNELS 3 Yrotation Xrotation Zrotation
   JOINT Chest3
   {
    OFFSET 0.000000 9.561800 0.000000
    CHANNELS 3 Yrotation Xrotation Zrotation
    JOINT Chest4
    {
     OFFSET 0.000000 9.552100 0.000000
     CHANNELS 3 Yrotation Xrotation Zrotation
     JOINT Neck
     {
      OFFSET 0.000000 14.453000 0.000000
      CHANNELS 3 Yrotation Xrotation Zrotation
      JOINT Head
      {
       OFFSET 0.000000 8.936500 -0.011300
       CHANNELS 3 Yrotation Xrotation Zrotation
       End Site
       {
        OFFSET 0.000000 17.073600 -0.006000
       }
      }
     }
     JOINT RightCollar
     {
      OFFSET -2.921100 9.558500 0.000000
      CHANNELS 3 Yrotation Xrotation Zrotation
      JOINT RightShoulder
      {
       OFFSET -13.519700 0.000000 0.000000
       CHANNELS 3 Yrotation Xrotation Zrotation
       JOINT RightElbow
       {
        OFFSET 0.000000 -29.696600 0.000000
        CHANNELS 3 Yrotation Xrotation Zrotation
        JOINT RightWrist
        {
         OFFSET 0.000000 -24.004700 0.000000
         CHANNELS 3 Yrotation Xrotation Zrotation
         End Site
         {
          OFFSET 0.000000 -17.728500 0.000000
         }
        }
       }
      }
     }
     JOINT LeftCollar
     {
      OFFSET 2.921100 9.558500 0.000000
      CHANNELS 3 Yrotation Xrotation Zrotation
      JOINT LeftShoulder
      {
       OFFSET 13.519700 0.000000 0.000000
       CHANNELS 3 Yrotation Xrotation Zrotation
       JOINT LeftElbow
       {
        OFFSET 0.000000 -29.696600 0.000000
        CHANNELS 3 Yrotation Xrotation Zrotation
        JOINT LeftWrist
        {
         OFFSET 0.000000 -24.004700 0.000000
         CHANNELS 3 Yrotation Xrotation Zrotation
         End Site
         {
          OFFSET 0.000000 -17.728500 0.000000
         }
        }
       }
      }
     }
    }
   }
  }
 }
 JOINT RightHip
 {
  OFFSET -7.771700 -0.012900 -0.001300
  CHANNELS 3 Yrotation Xrotation Zrotation
  JOINT RightKnee
  {
   OFFSET 0.000000 -40.869800 0.001200
   CHANNELS 3 Yrotation Xrotation Zrotation
   JOINT RightAnkle
   {
    OFFSET 0.000000 -39.717900 0.002100
    CHANNELS 3 Yrotation Xrotation Zrotation
    JOINT RightToe
    {
     OFFSET 0.000000 -4.965400 11.033500
     CHANNELS 3 Yrotation Xrotation Zrotation
     End Site
     {
      OFFSET 0.000000 -1.423100 5.872300
     }
    }
   }
  }
 }
 JOINT LeftHip
 {
  OFFSET 7.771700 -0.012900 -0.001300
  CHANNELS 3 Yrotation Xrotation Zrotation
  JOINT LeftKnee
  {
   OFFSET 0.000000 -40.869800 0.001200
   CHANNELS 3 Yrotation Xrotation Zrotation
   JOINT LeftAnkle
   {
    OFFSET 0.000000 -39.717900 0.002100
    CHANNELS 3 Yrotation Xrotation Zrotation
    JOINT LeftToe
    {
     OFFSET 0.000000 -4.965400 11.033500
     CHANNELS 3 Yrotation Xrotation Zrotation
     End Site
     {
      OFFSET 0.000000 -1.423100 5.872300
     }
    }
   }
  }
 }
}
MOTION
Frames: 11
Frame Time: 0.008333
0.000000 85.388000 0.000000 0.000000 -5.767877 0.000000 0.000000 11.653817 0.000000 0.000000 -5.885947 0.000000 0.000000 -0.000000 0.000000 0.000000 -0.000000 0.000000 0.000000 12.528835 0.000000 0.000000 0.711642 0.000000 0.000000 -0.000000 0.000000 0.000000 0.000000 -90.000000 0.000000 -2.309062 0.000000 0.000000 2.309062 0.000000 0.000000 -0.000000 0.000000 0.000000 -0.000000 90.000000 0.000000 -2.309062 0.000000 0.000000 2.309062 0.000000 0.000000 8.520406 0.000000 0.000000 1.905762 0.000000 -0.000000 -4.658285 0.000000 0.000000 -0.000000 0.000000 0.000000 8.520406 0.000000 0.000000 1.905762 0.000000 -0.000000 -4.658285 0.000000 0.000000 -0.000000 0.000000
-189.342748 57.634593 -60.139774 157.555000 -9.061793 0.955107 3.797522 6.229018 1.204110 0.159661 0.267177 0.025105 0.262138 0.470235 0.030142 3.336416 5.929982 0.527712 0.519736 18.005089 -1.299303 1.370129 -2.332693 -2.581348 2.423209 9.106326 0.265514 -9.261040 -10.722238 -7.281302 -126.676635 -81.274411 146.742658 -3.660209 4.823714 -28.434426 -5.033308 8.831031 -2.193123 23.483442 -6.374415 -0.344261 141.589467 -78.637577 -167.092483 -4.137864 9.758605 7.627192 -14.806394 -62.936201 8.353363 -30.828533 71.707623 -30.923475 -2.420949 -5.529106 -2.516769 -0.232200 0.656850 -0.106181 4.971177 -65.193036 14.503058 39.207597 66.399957 31.947779 -16.401777 -7.667625 4.650148 -0.223456 -0.895742 -0.096609
-189.350883 57.633493 -60.135674 157.589704 -9.032182 0.966500 3.772534 6.199127 1.195246 0.157610 0.266218 0.023195 0.261809 0.470119 0.030484 3.331306 5.930445 0.534066 0.514419 18.020973 -1.302500 1.358068 -2.301931 -2.580374 2.451021 9.102755 0.269524 -9.256567 -10.727266 -7.290280 -127.028895 -81.297737 147.104542 -3.638360 4.953444 -28.612116 -5.034777 8.816910 -2.206667 23.418635 -6.461319 -0.366222 141.693605 -78.670106 -167.153839 -4.147742 9.757679 7.612353 -14.823929 -62.970317 8.338653 -30.790683 71.707448 -30.903851 -2.424158 -5.527815 -2.499848 -0.242385 0.664700 -0.109410 4.947652 -65.220280 14.476438 39.177310 66.390787 31.913139 -16.431955 -7.639571 4.650302 -0.201013 -0.892247 -0.098129
-189.355269 57.632825 -60.133993 157.611006 -9.025894 0.962084 3.760354 6.190774 1.202989 0.152943 0.266678 0.020161 0.264743 0.469290 0.034030 3.336242 5.927561 0.549794 0.497124 18.040910 -1.313656 1.350897 -2.293616 -2.585273 2.461667 9.105151 0.260866 -9.135410 -10.757467 -7.287544 -127.409719 -81.373315 147.386897 -3.638080 5.065436 -28.779112 -5.047667 8.802634 -2.226431 23.377439 -6.500351 -0.371969 141.807033 -78.660227 -167.251028 -4.153515 9.756860 7.596049 -14.844654 -62.978104 8.348361 -30.809421 71.703188 -30.924696 -2.448155 -5.526211 -2.506427 -0.233563 0.665412 -0.099540 4.892927 -65.226265 14.495522 39.162932 66.389865 31.894316 -16.418422 -7.632730 4.647891 -0.204046 -0.886833 -0.099377
-189.358930 57.632237 -60.133545 157.628505 -9.028521 0.955416 3.751116 6.190385 1.213948 0.148983 0.267805 0.017271 0.265260 0.469528 0.036029 3.336215 5.927708 0.556965 0.489940 18.057426 -1.314893 1.334814 -2.251364 -2.582112 2.464303 9.105910 0.253187 -9.063300 -10.773562 -7.286140 -127.746940 -81.418934 147.690977 -3.667232 5.121494 -28.883799 -5.054378 8.785485 -2.237463 23.367792 -6.497515 -0.368332 141.961792 -78.613319 -167.423360 -4.154125 9.756115 7.583096 -14.844108 -62.974823 8.346792 -30.836675 71.695812 -30.956055 -2.458058 -5.529830 -2.506264 -0.233208 0.671766 -0.089625 4.838592 -65.224711 14.522633 39.159793 66.391790 31.886852 -16.411039 -7.631765 4.644995 -0.201645 -0.879808 -0.098419
-189.363294 57.631433 -60.132983 157.638312 -9.028113 0.952845 3.751959 6.187337 1.227165 0.143485 0.269378 0.012703 0.261472 0.470025 0.031280 3.337978 5.927698 0.563619 0.485810 18.072511 -1.313669 1.318637 -2.211402 -2.578481 2.493653 9.103235 0.262969 -9.052618 -10.780833 -7.297232 -127.897323 -81.449882 147.876609 -3.688242 5.182615 -29.037345 -5.055721 8.770875 -2.243923 23.331848 -6.534924 -0.370207 142.046502 -78.602327 -167.503089 -4.141660 9.788093 7.592601 -14.836407 -62.975970 8.344678 -30.832824 71.689283 -30.968287 -2.460507 -5.524190 -2.485978 -0.236671 0.674598 -0.093545 4.809316 -65.226803 14.538077 39.172194 66.393071 31.893995 -16.421486 -7.635725 4.645110 -0.191771 -0.867606 -0.095371
-189.367145 57.630519 -60.132650 157.647465 -9.028469 0.947769 3.749691 6.184759 1.236325 0.151389 0.267340 0.019586 0.253899 0.472917 0.026639 3.331396 5.929681 0.559233 0.485085 18.079614 -1.311764 1.303988 -2.178871 -2.573035 2.527841 9.099769 0.277600 -8.974535 -10.796012 -7.301614 -127.828735 -81.485424 147.743919 -3.684372 5.210176 -29.109071 -5.059762 8.738811 -2.251348 23.276827 -6.610243 -0.352779 141.970028 -78.631854 -167.394469 -4.151936 9.770038 7.568644 -14.828820 -62.975777 8.345967 -30.844450 71.682546 -30.991657 -2.467691 -5.523919 -2.475578 -0.243186 0.679628 -0.090717 4.787453 -65.226833 14.551188 39.179146 66.393038 31.898695 -16.441452 -7.657250 4.647236 -0.191899 -0.843619 -0.094927
-189.370464 57.629496 -60.132352 157.657475 -9.027760 0.939324 3.744418 6.180793 1.246170 0.148744 0.268121 0.018088 0.263065 0.471973 0.032580 3.328576 5.931362 0.562830 0.475071 18.087632 -1.317227 1.285569 -2.149255 -2.566663 2.546318 9.097797 0.283174 -8.885328 -10.808949 -7.304879 -127.646688 -81.508380 147.500059 -3.653482 5.207131 -29.155958 -5.073090 8.726940 -2.262115 23.255664 -6.651078 -0.343824 141.907572 -78.646075 -167.319517 -4.161414 9.752958 7.550702 -14.839764 -62.975372 8.358124 -30.850715 71.678301 -31.007037 -2.465875 -5.525194 -2.474488 -0.252175 0.682652 -0.091184 4.761006 -65.229003 14.568368 39.196861 66.387785 31.915715 -16.456104 -7.673041 4.644354 -0.169820 -0.832471 -0.086329
-189.372794 57.628775 -60.134305 157.650631 -9.038641 0.932382 3.751380 6.190368 1.253787 0.148601 0.268141 0.018225 0.261114 0.471151 0.033377 3.329930 5.930168 0.566228 0.461832 18.112752 -1.313971 1.289215 -2.154207 -2.572636 2.568076 9.099418 0.295309 -8.816801 -10.821208 -7.307484 -127.357590 -81.512171 147.182317 -3.706449 5.182466 -29.101579 -5.077059 8.718818 -2.267158 23.240596 -6.690329 -0.329983 141.826085 -78.655878 -167.229505 -4.191533 9.713720 7.510254 -14.830162 -62.963831 8.364493 -30.867334 71.674739 -31.024637 -2.472796 -5.527730 -2.480421 -0.246119 0.685419 -0.083870 4.761916 -65.221774 14.576615 39.202974 66.395517 31.927769 -16.451273 -7.695589 4.648205 -0.166922 -0.820491 -0.086267
-189.376895 57.627876 -60.135847 157.652618 -9.040072 0.931694 3.750278 6.191067 1.254012 0.148624 0.268017 0.018365 0.260191 0.470979 0.031990 3.330566 5.929994 0.569082 0.455107 18.122829 -1.310210 1.286224 -2.146183 -2.574287 2.601757 9.107292 0.319084 -8.769863 -10.841087 -7.313994 -127.131123 -81.517835 146.923329 -3.746188 5.156044 -29.030660 -5.082895 8.711194 -2.270456 23.237460 -6.706329 -0.319576 141.916098 -78.623373 -167.346422 -4.211117 9.706881 7.489544 -14.786608 -62.969343 8.347994 -30.926717 71.667893 -31.090553 -2.494924 -5.522158 -2.469367 -0.234910 0.683298 -0.072679 4.786279 -65.223461 14.549346 39.199099 66.397336 31.935733 -16.448850 -7.713564 4.651558 -0.167555 -0.809409 -0.086560
-189.382704 57.627007 -60.138229 157.659059 -9.039200 0.940233 3.743551 6.190270 1.244603 0.151850 0.267296 0.019480 0.256954 0.471708 0.030928 3.331264 5.929031 0.571039 0.449236 18.132326 -1.305325 1.263149 -2.122737 -2.569857 2.605032 9.109880 0.321336 -8.737891 -10.847401 -7.311098 -126.831383 -81.500624 146.642831 -3.726288 5.144222 -29.035156 -5.089149 8.707256 -2.274266 23.236583 -6.724252 -0.309704 142.007101 -78.599804 -167.472372 -4.220130 9.706122 7.487679 -14.769728 -62.974365 8.329537 -30.914559 71.670266 -31.100482 -2.489050 -5.527779 -2.442971 -0.256502 0.689471 -0.086277 4.839516 -65.225973 14.484522 39.199099 66.392851 31.952120 -16.452258 -7.733562 4.654927 -0.154323 -0.798711 -0.084474
